<svg viewBox="0 0 16 13" xmlns="http://www.w3.org/2000/svg" height="13" style="color: #0dcaf0;"><path fill="currentColor" d="M15.999 1.537a6.57 6.57 0 0 1-1.885.517A3.296 3.296 0 0 0 15.557.238a6.576 6.576 0 0 1-2.084.796A3.282 3.282 0 0 0 7.88 4.027 9.32 9.32 0 0 1 1.112.599 3.28 3.28 0 0 0 2.13 4.98a3.27 3.27 0 0 1-1.487-.41v.042a3.284 3.284 0 0 0 2.633 3.217 3.29 3.29 0 0 1-1.483.056 3.286 3.286 0 0 0 3.067 2.28A6.587 6.587 0 0 1 0 11.523a9.29 9.29 0 0 0 5.032 1.475c6.038 0 9.34-5.001 9.34-9.338 0-.143-.004-.284-.01-.425a6.673 6.673 0 0 0 1.637-1.698H16z"></path></svg>
